<svg width="120" height="50" viewBox="0 0 110 26" fill="none" xmlns="http://www.w3.org/2000/svg">
<path d="M8 25.92C6.82667 25.92 5.69333 25.4133 4.6 24.4C4.44 24.3467 4.30667 24.2267 4.2 24.04C4.09333 23.88 3.98667 23.7467 3.88 23.64C3.69333 23.5867 3.57333 23.5067 3.52 23.4C3.46667 23.2933 3.41333 23.16 3.36 23C3.36 22.9733 3.33333 22.9333 3.28 22.88C3.25333 22.8533 3.22667 22.8267 3.2 22.8C3.17333 22.7733 3.14667 22.7467 3.12 22.72C3.09333 22.72 3.08 22.72 3.08 22.72C3.10667 22.6933 3.12 22.68 3.12 22.68C3.01333 22.4667 2.94667 22.32 2.92 22.24C2.89333 22.1333 2.78667 22 2.6 21.84C2.54667 21.7867 2.49333 21.7067 2.44 21.6C2.41333 21.4667 2.38667 21.36 2.36 21.28C2.06667 20.5867 1.8 19.88 1.56 19.16C1.34667 18.4133 1.24 17.6533 1.24 16.88C1.24 16.6133 1.32 16.4133 1.48 16.28C1.64 16.1467 1.81333 16.08 2 16.08C2.34667 16.08 2.57333 16.2533 2.68 16.6C2.73333 16.7067 2.78667 16.8267 2.84 16.96C2.92 17.0667 2.96 17.1733 2.96 17.28V17.68C2.96 17.84 3 17.88 3.08 17.8C3.18667 17.6933 3.25333 17.7067 3.28 17.84C3.33333 18.0267 3.37333 18.1467 3.4 18.2C3.42667 18.2267 3.53333 18.2933 3.72 18.4C3.77333 18.5067 3.84 18.6133 3.92 18.72C4 18.8267 4.08 18.9333 4.16 19.04V19.12C4.16 19.28 4.21333 19.4 4.32 19.48C4.42667 19.5333 4.54667 19.6 4.68 19.68L5.2 20.24C5.17333 20.2933 5.16 20.3467 5.16 20.4C5.16 20.56 5.24 20.6667 5.4 20.72C5.58667 20.7733 5.74667 20.8267 5.88 20.88C5.90667 20.9067 6.05333 21.04 6.32 21.28C6.61333 21.4933 6.81333 21.6267 6.92 21.68C7.05333 21.76 7.2 21.8533 7.36 21.96C7.52 22.04 7.68 22.1067 7.84 22.16C7.89333 22.16 7.94667 22.1867 8 22.24C8.48 22.4267 8.92 22.52 9.32 22.52C9.69333 22.52 10.12 22.44 10.6 22.28C10.68 22.2533 10.7467 22.24 10.8 22.24C10.88 22.2133 10.9333 22.2 10.96 22.2C11.04 22.2 11.08 22.2267 11.08 22.28C11.08 22.4133 10.96 22.5467 10.72 22.68C10.72 22.7333 10.68 22.76 10.6 22.76C10.4933 22.7867 10.3867 22.8267 10.28 22.88C10.1733 22.9333 10.0667 22.9467 9.96 22.92C9.82667 22.92 9.72 22.9067 9.64 22.88C9.56 22.8533 9.45333 22.8933 9.32 23C8.97333 22.9733 8.58667 22.8933 8.16 22.76C7.73333 22.6267 7.37333 22.48 7.08 22.32C7.05333 22.1333 6.93333 22.04 6.72 22.04C6.50667 22.0133 6.33333 21.9467 6.2 21.84C6.09333 21.7067 6 21.56 5.92 21.4C5.86667 21.24 5.73333 21.2267 5.52 21.36C5.41333 21.2533 5.32 21.1733 5.24 21.12C5.16 21.04 5.04 21 4.88 21C4.82667 20.9467 4.74667 20.8933 4.64 20.84C4.56 20.7867 4.53333 20.7067 4.56 20.6C4.45333 20.52 4.24 20.3867 3.92 20.2C3.62667 19.9867 3.45333 19.8533 3.4 19.8C3.26667 19.64 3.14667 19.5067 3.04 19.4C2.93333 19.2933 2.78667 19.2 2.6 19.12L2.48 19.04C2.82667 20.08 3.24 21.0933 3.72 22.08C4.22667 23.0667 4.96 23.8667 5.92 24.48C6.37333 24.7467 6.78667 24.96 7.16 25.12C7.56 25.3067 7.94667 25.4 8.32 25.4C9.01333 25.4 9.74667 25.0533 10.52 24.36C11.1867 23.7467 11.7867 23.0133 12.32 22.16C12.8533 21.28 13.3333 20.36 13.76 19.4C14.1867 18.44 14.56 17.5467 14.88 16.72C14.9333 16.6667 14.9733 16.6267 15 16.6C15.0267 16.5733 15.0533 16.5467 15.08 16.52C15.1333 16.36 15.1733 16.1733 15.2 15.96C15.2533 15.7467 15.3067 15.5467 15.36 15.36L14.04 15.6C13.6933 15.6533 13.52 15.6667 13.52 15.64C13.52 15.5867 13.56 15.5333 13.64 15.48C13.72 15.4 13.68 15.3733 13.52 15.4H13.36C13.1467 15.4 12.9467 15.44 12.76 15.52C12.5733 15.6 12.48 15.6667 12.48 15.72C12.48 15.7733 12.36 15.84 12.12 15.92C11.9067 16 11.68 16.0667 11.44 16.12C11.2 16.1733 11.0667 16.2 11.04 16.2C10.6133 16.28 10.2133 16.36 9.84 16.44C9.46667 16.4933 9.13333 16.5467 8.84 16.6H8.8C8.69333 16.6 8.6 16.52 8.52 16.36C8.44 16.2 8.4 16.0267 8.4 15.84C8.45333 15.52 8.54667 15.2933 8.68 15.16C8.73333 15.1067 8.78667 15.08 8.84 15.08L10.12 14.88C10.4133 14.8267 10.7733 14.7867 11.2 14.76C11.6533 14.7333 12.04 14.6667 12.36 14.56L14.36 14.4L15.92 14.24C15.9467 14.1867 15.96 14.0933 15.96 13.96L16.04 13.76C16.0933 13.7333 16.08 13.6933 16 13.64C15.92 13.5867 15.9733 13.5467 16.16 13.52C16.3467 13.2267 16.4533 12.9333 16.48 12.64C16.5333 12.32 16.6133 12.0933 16.72 11.96C16.8 11.8267 16.88 11.7067 16.96 11.6C17.04 11.4933 17.0533 11.36 17 11.2C17.0267 11.0933 17.1067 10.84 17.24 10.44C17.4 10.0133 17.5733 9.54667 17.76 9.04C17.9467 8.53333 18.1067 8.09333 18.24 7.72C18.3733 7.32 18.44 7.09333 18.44 7.04L18.84 5.88C18.0933 5.90667 17.3333 5.94667 16.56 6C15.7867 6.05333 15.0267 6.17333 14.28 6.36C14.3067 6.33333 14.2933 6.30667 14.24 6.28C14.1867 6.22667 14.1467 6.2 14.12 6.2L14.08 6.16C13.9733 6.13333 13.9467 6.16 14 6.24C14.08 6.29333 14.0667 6.34667 13.96 6.4C13.72 6.42667 13.44 6.49333 13.12 6.6C12.8267 6.68 12.56 6.72 12.32 6.72C12.2133 6.74667 12.0933 6.76 11.96 6.76C11.8267 6.73333 11.6933 6.72 11.56 6.72C11.16 6.74667 10.76 6.85333 10.36 7.04C9.98667 7.22667 9.6 7.38667 9.2 7.52L8.48 7.72C8.18667 7.85333 7.86667 7.94667 7.52 8C7.17333 8.05333 6.85333 8.14667 6.56 8.28L6.6 8.32C6.49333 8.4 6.36 8.45333 6.2 8.48C6.04 8.50667 5.89333 8.54667 5.76 8.6C5.44 8.70667 5.10667 8.84 4.76 9C4.44 9.13333 4.10667 9.25333 3.76 9.36C3.57333 9.41333 3.38667 9.46667 3.2 9.52C3.04 9.54667 2.85333 9.6 2.64 9.68C2.53333 9.70667 2.44 9.73333 2.36 9.76C2.28 9.76 2.18667 9.76 2.08 9.76C1.84 9.76 1.62667 9.70667 1.44 9.6C1.33333 9.54667 1.17333 9.4 0.96 9.16C0.773333 8.89333 0.613333 8.62667 0.48 8.36C0.346667 8.06667 0.293333 7.85333 0.32 7.72C0.346667 7.64 0.52 7.54667 0.84 7.44C1.16 7.30667 1.53333 7.18667 1.96 7.08C2.38667 6.94667 2.77333 6.84 3.12 6.76C3.49333 6.65333 3.73333 6.58667 3.84 6.56C3.89333 6.53333 4.04 6.50667 4.28 6.48C4.52 6.42667 4.65333 6.45333 4.68 6.56C4.70667 6.61333 4.68 6.69333 4.6 6.8C4.52 6.88 4.45333 6.94667 4.4 7C4.4 7.02667 4.36 7.08 4.28 7.16C4.22667 7.24 4.22667 7.26667 4.28 7.24L5.68 6.88C5.89333 6.82667 6.14667 6.81333 6.44 6.84C6.76 6.84 7 6.78667 7.16 6.68C7.21333 6.62667 7.24 6.57333 7.24 6.52C7.26667 6.46667 7.32 6.44 7.4 6.44C7.58667 6.38667 7.89333 6.33333 8.32 6.28C8.77333 6.22667 9.05333 6.14667 9.16 6.04C9.37333 5.98667 9.6 5.96 9.84 5.96C10.08 5.93333 10.2933 5.86667 10.48 5.76C10.56 5.73333 10.8133 5.68 11.24 5.6C11.6933 5.52 12.2 5.44 12.76 5.36C13.3467 5.25333 13.8667 5.17333 14.32 5.12C14.7733 5.04 15.04 5 15.12 5H15.16C15.2667 5 15.3733 4.98667 15.48 4.96C15.5867 4.93333 15.6933 4.92 15.8 4.92C16.0133 4.92 16.12 5.01333 16.12 5.2C16.1467 5.22667 16.2133 5.24 16.32 5.24C16.56 5.24 16.7467 5.17333 16.88 5.04C16.9867 5.01333 17.0667 4.97333 17.12 4.92C17.2 4.86667 17.2933 4.82667 17.4 4.8C17.6933 4.74667 18 4.73333 18.32 4.76C18.6667 4.76 18.9733 4.76 19.24 4.76C19.4267 4.36 19.6267 4.09333 19.84 3.96C20.0533 3.8 20.3733 3.72 20.8 3.72C21.0933 3.72 21.28 3.86667 21.36 4.16C21.44 4.42667 21.48 4.66667 21.48 4.88C21.6133 4.88 21.7867 4.88 22 4.88C22.2133 4.85333 22.44 4.84 22.68 4.84C22.92 4.84 23.1467 4.85333 23.36 4.88C23.6 4.90667 23.7867 4.94667 23.92 5C23.9467 4.92 24.0133 4.89333 24.12 4.92C24.2533 4.92 24.3467 4.93333 24.4 4.96C24.6133 5.06667 24.84 5.12 25.08 5.12C25.3467 5.09333 25.6 5.13333 25.84 5.24C26.08 5.32 26.3067 5.41333 26.52 5.52C26.7333 5.62667 26.96 5.72 27.2 5.8C27.4133 5.85333 27.5867 5.96 27.72 6.12C27.88 6.25333 28.0533 6.38667 28.24 6.52C28.32 6.57333 28.4 6.64 28.48 6.72C28.56 6.77333 28.6 6.85333 28.6 6.96C28.6 6.96 28.64 7.01333 28.72 7.12C28.8 7.22667 28.7467 7.25333 28.56 7.2C28.5333 7.2 28.4933 7.2 28.44 7.2C28.4133 7.17333 28.3867 7.17333 28.36 7.2C28.36 7.25333 28.3867 7.30667 28.44 7.36C28.4933 7.38667 28.5467 7.38667 28.6 7.36C28.68 7.33333 28.7333 7.30667 28.76 7.28C28.8667 7.28 28.92 7.33333 28.92 7.44C28.9467 7.54667 28.9733 7.65333 29 7.76C29.08 8.08 29.12 8.4 29.12 8.72C29.12 9.06667 29.0267 9.45333 28.84 9.88C28.68 10.3067 28.4533 10.68 28.16 11C27.8667 11.2933 27.52 11.44 27.12 11.44C26.9867 11.44 26.88 11.4267 26.8 11.4C26.5067 11.32 26.36 11.24 26.36 11.16C26.36 11.08 26.4933 10.9467 26.76 10.76C26.9467 10.6267 27.1067 10.48 27.24 10.32C27.3733 10.1333 27.4933 9.94667 27.6 9.76C27.7867 9.62667 27.9333 9.36 28.04 8.96C28.1467 8.56 28.2 8.18667 28.2 7.84C28.2 7.57333 28.16 7.36 28.08 7.2C28.0533 7.2 27.9333 7.05333 27.72 6.76C27.5333 6.46667 27.3067 6.30667 27.04 6.28C26.9067 6.22667 26.76 6.17333 26.6 6.12C26.4667 6.06667 26.3333 6.02667 26.2 6C26.0933 5.89333 25.88 5.81333 25.56 5.76C25.2667 5.70667 24.96 5.66667 24.64 5.64C24.32 5.61333 24.08 5.6 23.92 5.6C23.7867 5.6 23.5467 5.61333 23.2 5.64C22.8533 5.64 22.5067 5.65333 22.16 5.68C21.8133 5.68 21.5733 5.68 21.44 5.68C21.2 6.37333 20.7867 6.78667 20.2 6.92C20.1733 7 20.0667 7.28 19.88 7.76C19.6933 8.24 19.4933 8.77333 19.28 9.36C19.0667 9.92 18.8667 10.4267 18.68 10.88C18.52 11.3067 18.4267 11.5467 18.4 11.6C18.32 11.7067 18.24 11.8133 18.16 11.92C18.08 12.0267 18.0267 12.1467 18 12.28C17.92 12.76 17.68 13.4133 17.28 14.24C17.3067 14.24 17.32 14.2533 17.32 14.28C17.32 14.28 17.3733 14.28 17.48 14.28C17.6933 14.28 17.8267 14.2667 17.88 14.24C17.96 14.1867 18.1067 14.1467 18.32 14.12C18.6133 14.0933 18.9733 14.08 19.4 14.08C19.8533 14.08 20.2133 14.0933 20.48 14.12C20.6133 14.12 20.8 14.12 21.04 14.12C21.3067 14.12 21.4933 14.1467 21.6 14.2C21.6533 14.2267 21.6667 14.2533 21.64 14.28C21.6133 14.3067 21.64 14.32 21.72 14.32H21.8C21.8533 14.32 21.9067 14.32 21.96 14.32C22.0133 14.2933 22.08 14.2667 22.16 14.24L22.52 14.28C22.7867 14.3333 23 14.3867 23.16 14.44C23.4 14.4667 23.52 14.5867 23.52 14.8C23.52 14.96 23.4 15 23.16 14.92C23.1067 14.92 23.04 14.9067 22.96 14.88C22.9067 14.8533 22.84 14.8267 22.76 14.8H22.6C22.3067 14.8 21.8667 14.7867 21.28 14.76C20.6933 14.7333 20.1733 14.7333 19.72 14.76C19.64 14.76 19.6 14.7333 19.6 14.68C19.6267 14.6 19.6133 14.56 19.56 14.56C19.5333 14.5333 19.4667 14.56 19.36 14.64C19.28 14.6933 19.2267 14.7333 19.2 14.76C19.12 14.76 19.0533 14.7733 19 14.8C18.9733 14.8267 18.92 14.84 18.84 14.84L16.88 15.08L16.48 15.96C16.32 16.0667 16.1867 16.16 16.08 16.24C15.9733 16.2933 16 16.4133 16.16 16.6C16.08 16.7867 16 16.88 15.92 16.88C15.84 16.8533 15.7333 16.8267 15.6 16.8C15.6267 16.9333 15.6667 17.0267 15.72 17.08C15.7733 17.1067 15.8133 17.1867 15.84 17.32C15.6267 17.8 15.36 18.3867 15.04 19.08C14.72 19.7467 14.4 20.28 14.08 20.68C13.8933 20.76 13.7467 20.84 13.64 20.92C13.5333 21 13.5333 21.16 13.64 21.4C13.5867 21.4533 13.5467 21.52 13.52 21.6C13.4933 21.68 13.4667 21.76 13.44 21.84L13.12 22.32C13.0133 22.4 12.9067 22.4933 12.8 22.6C12.6933 22.68 12.64 22.8133 12.64 23C12.5333 23.16 12.44 23.28 12.36 23.36C12.2 23.4133 12.0667 23.48 11.96 23.56C11.8533 23.64 11.8 23.7867 11.8 24C11.2667 24.5867 10.6667 25.0533 10 25.4C9.36 25.7467 8.69333 25.92 8 25.92ZM28.9966 23.36C28.4099 23.36 27.8899 23.2 27.4366 22.88C27.0099 22.5333 26.7966 21.9467 26.7966 21.12C26.7966 20.8267 26.8499 20.4133 26.9566 19.88C27.0632 19.3467 27.2366 18.7867 27.4766 18.2C27.6099 17.88 27.7566 17.5733 27.9166 17.28C28.1032 16.9867 28.2766 16.7067 28.4366 16.44C28.4632 16.4133 28.5432 16.44 28.6766 16.52C28.8366 16.6 28.9299 16.6267 28.9566 16.6C28.9832 16.5467 28.9432 16.4933 28.8366 16.44C28.7566 16.36 28.7299 16.3067 28.7566 16.28C28.8099 16.2267 28.8499 16.2 28.8766 16.2C28.9299 16.1733 28.9699 16.1333 28.9966 16.08C29.0232 16.0267 29.0366 15.9733 29.0366 15.92C29.0366 15.84 28.9966 15.7733 28.9166 15.72C28.8632 15.6667 28.8899 15.5867 28.9966 15.48C29.1299 15.2933 29.2766 15.12 29.4366 14.96C29.6232 14.7733 29.7832 14.6133 29.9166 14.48C29.9699 14.4267 30.0366 14.3467 30.1166 14.24C30.1966 14.1067 30.2499 14.0267 30.2766 14L30.3566 13.92C30.3832 13.8933 30.4099 13.8667 30.4366 13.84C30.4366 13.8133 30.4366 13.8 30.4366 13.8C30.4632 13.8 30.4766 13.7867 30.4766 13.76C30.4766 13.68 30.3966 13.6 30.2366 13.52C30.0766 13.44 29.9966 13.3867 29.9966 13.36C29.9966 13.3333 29.9832 13.3067 29.9566 13.28C29.9299 13.2533 29.9032 13.2133 29.8766 13.16C29.9032 13.16 29.9299 13.1333 29.9566 13.08C30.0099 13 30.0499 12.96 30.0766 12.96C30.1032 12.96 30.1566 12.9867 30.2366 13.04C30.3166 13.0667 30.3699 13.08 30.3966 13.08C30.4232 13.08 30.4366 13.0667 30.4366 13.04C30.4632 13.0133 30.4899 13 30.5166 13C30.5699 13 30.6899 13.04 30.8766 13.12C31.0632 13.1733 31.1699 13.2 31.1966 13.2C31.2232 13.2 31.3032 13.1333 31.4366 13C31.5699 12.8667 31.6499 12.7867 31.6766 12.76C31.7299 12.7067 31.7699 12.6533 31.7966 12.6C31.8232 12.52 31.8899 12.4267 31.9966 12.32H32.0366C32.0632 12.2933 32.0766 12.2667 32.0766 12.24C32.0766 12.2133 32.0766 12.2 32.0766 12.2C32.1299 12.1467 32.1699 12.1067 32.1966 12.08C32.2499 12.0267 32.2899 11.9867 32.3166 11.96C32.3432 11.9333 32.3566 11.92 32.3566 11.92C32.3832 11.92 32.3966 11.92 32.3966 11.92C32.4232 11.8667 32.4499 11.8267 32.4766 11.8C32.5299 11.7733 32.5699 11.7467 32.5966 11.72L32.6766 11.56C32.7299 11.5067 32.9166 11.3867 33.2366 11.2C33.5566 11.0133 33.7966 10.92 33.9566 10.92H34.1566C34.1566 10.92 34.1566 10.9333 34.1566 10.96C34.1566 10.96 34.1699 10.96 34.1966 10.96C34.2232 10.96 34.2499 10.96 34.2766 10.96C34.3032 10.9333 34.3299 10.92 34.3566 10.92C34.3566 10.92 34.3966 10.96 34.4766 11.04C34.5032 11.0667 34.5299 11.08 34.5566 11.08C34.5832 11.0533 34.6099 11.04 34.6366 11.04C34.6632 11.0667 34.6766 11.0933 34.6766 11.12C34.6766 11.1467 34.6899 11.16 34.7166 11.16C34.7699 11.16 34.7832 11.16 34.7566 11.16C34.7566 11.1333 34.7699 11.12 34.7966 11.12C34.8232 11.12 34.8366 11.1467 34.8366 11.2C34.8366 11.2533 34.8499 11.3067 34.8766 11.36C34.8499 11.44 34.8232 11.5333 34.7966 11.64C34.7966 11.72 34.7832 11.7867 34.7566 11.84C34.5166 12.16 34.3299 12.32 34.1966 12.32C34.1966 12.3467 34.1566 12.4 34.0766 12.48C33.9966 12.48 33.9032 12.5067 33.7966 12.56C33.6899 12.6133 33.5832 12.6667 33.4766 12.72V12.84C33.4766 12.9467 33.4366 13 33.3566 13C33.3032 12.9733 33.2499 13.0133 33.1966 13.12V13.16C33.2499 13.24 33.3432 13.28 33.4766 13.28L33.7566 13.32C33.8099 13.32 33.8366 13.3067 33.8366 13.28C33.8632 13.2533 33.8899 13.24 33.9166 13.24C33.9432 13.24 33.9566 13.2533 33.9566 13.28C33.9566 13.28 33.9699 13.28 33.9966 13.28C34.0499 13.28 34.0899 13.2667 34.1166 13.24C34.1432 13.2133 34.1699 13.2 34.1966 13.2L34.5566 13.24C34.4766 13.1067 34.4366 13 34.4366 12.92C34.4366 12.7867 34.5566 12.7067 34.7966 12.68C35.1699 12.68 35.4899 12.8133 35.7566 13.08C35.8099 13.0533 35.8766 13.0533 35.9566 13.08C36.0366 13.1067 36.1166 13.1067 36.1966 13.08L36.3966 12.96L36.4366 13C36.5432 12.9467 36.6099 12.92 36.6366 12.92C36.6899 12.92 36.7032 12.9333 36.6766 12.96C36.6766 12.96 36.6899 12.96 36.7166 12.96C36.7166 12.96 36.7432 12.9333 36.7966 12.88C36.8232 12.88 36.8499 12.8933 36.8766 12.92C36.9299 12.92 36.9699 12.9067 36.9966 12.88L37.1166 12.76H37.5966L37.6366 12.72C37.6899 12.6933 37.7566 12.6667 37.8366 12.64C37.9432 12.5867 38.0366 12.56 38.1166 12.56C38.1166 12.5333 38.1432 12.52 38.1966 12.52C38.2499 12.4933 38.2899 12.48 38.3166 12.48H38.3966C38.5299 12.48 38.5966 12.52 38.5966 12.6C38.5966 12.68 38.5566 12.7467 38.4766 12.8C38.4499 12.8267 38.4099 12.84 38.3566 12.84C38.3032 12.8133 38.2499 12.8133 38.1966 12.84C38.0899 12.9467 38.0099 13 37.9566 13C37.9299 13 37.9166 13 37.9166 13C37.9166 12.9733 37.9032 12.96 37.8766 12.96C37.8499 12.96 37.7966 13 37.7166 13.08L37.4366 13.12H37.3966C37.3432 13.12 37.3166 13.1467 37.3166 13.2C37.2099 13.2 37.1032 13.2133 36.9966 13.24C36.8899 13.24 36.7832 13.2533 36.6766 13.28L36.6366 13.32C36.6099 13.32 36.5832 13.3333 36.5566 13.36C36.5299 13.36 36.4899 13.36 36.4366 13.36C36.3832 13.3867 36.2366 13.4 35.9966 13.4C36.1566 13.6133 36.2632 13.8133 36.3166 14C36.3699 14.1333 36.4099 14.3467 36.4366 14.64C36.4899 14.9067 36.5032 15.1067 36.4766 15.24C36.4766 15.32 36.4499 15.3467 36.3966 15.32C36.3432 15.2667 36.3166 15.2667 36.3166 15.32C36.3166 15.4 36.3432 15.4533 36.3966 15.48C36.4766 15.48 36.5166 15.5467 36.5166 15.68C36.5166 15.76 36.5032 15.8667 36.4766 16C36.4499 16.1067 36.4232 16.2267 36.3966 16.36C36.3699 16.52 36.3299 16.6933 36.2766 16.88C36.2499 17.04 36.1832 17.2 36.0766 17.36L35.9566 17.56V17.8C35.9566 18.0133 35.8899 18.16 35.7566 18.24C35.6499 18.32 35.5699 18.4133 35.5166 18.52C35.4632 18.68 35.4232 18.7867 35.3966 18.84C35.3966 18.8933 35.3432 19 35.2366 19.16C34.8899 19.6933 34.4766 20.2 33.9966 20.68C33.5166 21.16 33.0499 21.6 32.5966 22C32.1966 22.3467 31.6499 22.6667 30.9566 22.96C30.2899 23.2267 29.6366 23.36 28.9966 23.36ZM29.3966 22.64C29.4766 22.64 29.6366 22.6267 29.8766 22.6C30.1166 22.5467 30.3699 22.4267 30.6366 22.24C30.6899 22.2133 30.7432 22.2267 30.7966 22.28C30.8499 22.3333 30.9032 22.3467 30.9566 22.32C31.0899 22.2667 31.1432 22.2267 31.1166 22.2C31.0899 22.1733 31.1299 22.1467 31.2366 22.12H31.2766C31.4366 22.12 31.5032 22.1067 31.4766 22.08C31.4766 22.0267 31.4899 21.96 31.5166 21.88C31.5166 21.8 31.5566 21.7333 31.6366 21.68C31.7166 21.6267 31.7832 21.5867 31.8366 21.56C32.1299 21.32 32.4899 20.92 32.9166 20.36C33.3432 19.7733 33.7699 19.1867 34.1966 18.6C34.2232 18.5467 34.2632 18.5333 34.3166 18.56C34.3699 18.5867 34.4099 18.5867 34.4366 18.56C34.4632 18.5333 34.4766 18.4533 34.4766 18.32C34.4766 18.24 34.5166 18.12 34.5966 17.96C34.6766 17.7733 34.7566 17.6267 34.8366 17.52C34.8632 17.44 34.9166 17.2933 34.9966 17.08C35.0766 16.84 35.1432 16.6267 35.1966 16.44C35.2766 16.2267 35.2899 16.12 35.2366 16.12C35.1832 16.0933 35.1566 16.0667 35.1566 16.04C35.1566 15.9867 35.2366 15.9333 35.3966 15.88C35.5566 15.8267 35.5432 15.7867 35.3566 15.76C35.3032 15.7333 35.3166 15.68 35.3966 15.6C35.4766 15.52 35.4366 15.4667 35.2766 15.44C35.1432 15.4133 35.0899 15.3733 35.1166 15.32C35.1699 15.2667 35.2099 15.2267 35.2366 15.2C35.3166 15.12 35.3566 15.04 35.3566 14.96C35.3566 14.72 35.2899 14.48 35.1566 14.24C35.0499 14 34.9299 13.7867 34.7966 13.6C34.6366 13.7067 34.5566 13.76 34.5566 13.76C34.5299 13.76 34.5166 13.76 34.5166 13.76C34.5166 13.7333 34.4899 13.72 34.4366 13.72C34.4099 13.72 34.3966 13.72 34.3966 13.72C34.3966 13.6933 34.3832 13.68 34.3566 13.68C34.3299 13.68 34.3032 13.6933 34.2766 13.72C34.2499 13.7467 34.2366 13.76 34.2366 13.76C34.2099 13.7867 34.1566 13.8 34.0766 13.8C34.0232 13.8 33.9832 13.8 33.9566 13.8C33.9299 13.8 33.9032 13.7867 33.8766 13.76C33.8766 13.7333 33.8632 13.72 33.8366 13.72C33.8099 13.72 33.7699 13.7467 33.7166 13.8C33.6899 13.8533 33.6499 13.88 33.5966 13.88C33.5699 13.88 33.5566 13.8667 33.5566 13.84C33.5566 13.8133 33.5299 13.8 33.4766 13.8C33.4499 13.8 33.4232 13.8133 33.3966 13.84C33.3966 13.8667 33.3832 13.88 33.3566 13.88C33.3299 13.88 33.2766 13.84 33.1966 13.76H33.1566C33.1566 13.92 33.1166 14 33.0366 14C33.0099 14 32.9699 13.9733 32.9166 13.92C32.6232 14.1067 32.1299 14.5467 31.4366 15.24C30.7432 15.9067 30.1299 16.68 29.5966 17.56C29.4899 17.7733 29.3566 18.0267 29.1966 18.32C29.0632 18.6133 28.9432 18.9467 28.8366 19.32C28.8099 19.48 28.7299 19.6 28.5966 19.68C28.4899 19.76 28.4099 19.8533 28.3566 19.96C28.3299 20.0667 28.3432 20.1333 28.3966 20.16C28.4499 20.1867 28.4899 20.2267 28.5166 20.28C28.5166 20.3867 28.4899 20.5333 28.4366 20.72C28.4099 20.9067 28.3966 21.08 28.3966 21.24C28.3966 21.7467 28.4899 22.1067 28.6766 22.32C28.8899 22.5333 29.1299 22.64 29.3966 22.64ZM40.0903 23.36C39.5036 23.36 38.9836 23.2 38.5303 22.88C38.1036 22.5333 37.8903 21.9467 37.8903 21.12C37.8903 20.8267 37.9436 20.4133 38.0503 19.88C38.157 19.3467 38.3303 18.7867 38.5703 18.2C38.7036 17.88 38.8503 17.5733 39.0103 17.28C39.197 16.9867 39.3703 16.7067 39.5303 16.44C39.557 16.4133 39.637 16.44 39.7703 16.52C39.9303 16.6 40.0236 16.6267 40.0503 16.6C40.077 16.5467 40.037 16.4933 39.9303 16.44C39.8503 16.36 39.8236 16.3067 39.8503 16.28C39.9036 16.2267 39.9436 16.2 39.9703 16.2C40.0236 16.1733 40.0636 16.1333 40.0903 16.08C40.117 16.0267 40.1303 15.9733 40.1303 15.92C40.1303 15.84 40.0903 15.7733 40.0103 15.72C39.957 15.6667 39.9836 15.5867 40.0903 15.48C40.2236 15.2933 40.3703 15.12 40.5303 14.96C40.717 14.7733 40.877 14.6133 41.0103 14.48C41.0636 14.4267 41.1303 14.3467 41.2103 14.24C41.2903 14.1067 41.3436 14.0267 41.3703 14L41.4503 13.92C41.477 13.8933 41.5036 13.8667 41.5303 13.84C41.5303 13.8133 41.5303 13.8 41.5303 13.8C41.557 13.8 41.5703 13.7867 41.5703 13.76C41.5703 13.68 41.4903 13.6 41.3303 13.52C41.1703 13.44 41.0903 13.3867 41.0903 13.36C41.0903 13.3333 41.077 13.3067 41.0503 13.28C41.0236 13.2533 40.997 13.2133 40.9703 13.16C40.997 13.16 41.0236 13.1333 41.0503 13.08C41.1036 13 41.1436 12.96 41.1703 12.96C41.197 12.96 41.2503 12.9867 41.3303 13.04C41.4103 13.0667 41.4636 13.08 41.4903 13.08C41.517 13.08 41.5303 13.0667 41.5303 13.04C41.557 13.0133 41.5836 13 41.6103 13C41.6636 13 41.7836 13.04 41.9703 13.12C42.157 13.1733 42.2636 13.2 42.2903 13.2C42.317 13.2 42.397 13.1333 42.5303 13C42.6636 12.8667 42.7436 12.7867 42.7703 12.76C42.8236 12.7067 42.8636 12.6533 42.8903 12.6C42.917 12.52 42.9836 12.4267 43.0903 12.32H43.1303C43.157 12.2933 43.1703 12.2667 43.1703 12.24C43.1703 12.2133 43.1703 12.2 43.1703 12.2C43.2236 12.1467 43.2636 12.1067 43.2903 12.08C43.3436 12.0267 43.3836 11.9867 43.4103 11.96C43.437 11.9333 43.4503 11.92 43.4503 11.92C43.477 11.92 43.4903 11.92 43.4903 11.92C43.517 11.8667 43.5436 11.8267 43.5703 11.8C43.6236 11.7733 43.6636 11.7467 43.6903 11.72L43.7703 11.56C43.8236 11.5067 44.0103 11.3867 44.3303 11.2C44.6503 11.0133 44.8903 10.92 45.0503 10.92H45.2503C45.2503 10.92 45.2503 10.9333 45.2503 10.96C45.2503 10.96 45.2636 10.96 45.2903 10.96C45.317 10.96 45.3436 10.96 45.3703 10.96C45.397 10.9333 45.4236 10.92 45.4503 10.92C45.4503 10.92 45.4903 10.96 45.5703 11.04C45.597 11.0667 45.6236 11.08 45.6503 11.08C45.677 11.0533 45.7036 11.04 45.7303 11.04C45.757 11.0667 45.7703 11.0933 45.7703 11.12C45.7703 11.1467 45.7836 11.16 45.8103 11.16C45.8636 11.16 45.877 11.16 45.8503 11.16C45.8503 11.1333 45.8636 11.12 45.8903 11.12C45.917 11.12 45.9303 11.1467 45.9303 11.2C45.9303 11.2533 45.9436 11.3067 45.9703 11.36C45.9436 11.44 45.917 11.5333 45.8903 11.64C45.8903 11.72 45.877 11.7867 45.8503 11.84C45.6103 12.16 45.4236 12.32 45.2903 12.32C45.2903 12.3467 45.2503 12.4 45.1703 12.48C45.0903 12.48 44.997 12.5067 44.8903 12.56C44.7836 12.6133 44.677 12.6667 44.5703 12.72V12.84C44.5703 12.9467 44.5303 13 44.4503 13C44.397 12.9733 44.3436 13.0133 44.2903 13.12V13.16C44.3436 13.24 44.437 13.28 44.5703 13.28L44.8503 13.32C44.9036 13.32 44.9303 13.3067 44.9303 13.28C44.957 13.2533 44.9836 13.24 45.0103 13.24C45.037 13.24 45.0503 13.2533 45.0503 13.28C45.0503 13.28 45.0636 13.28 45.0903 13.28C45.1436 13.28 45.1836 13.2667 45.2103 13.24C45.237 13.2133 45.2636 13.2 45.2903 13.2L45.6503 13.24C45.5703 13.1067 45.5303 13 45.5303 12.92C45.5303 12.7867 45.6503 12.7067 45.8903 12.68C46.2636 12.68 46.5836 12.8133 46.8503 13.08C46.9036 13.0533 46.9703 13.0533 47.0503 13.08C47.1303 13.1067 47.2103 13.1067 47.2903 13.08L47.4903 12.96L47.5303 13C47.637 12.9467 47.7036 12.92 47.7303 12.92C47.7836 12.92 47.797 12.9333 47.7703 12.96C47.7703 12.96 47.7836 12.96 47.8103 12.96C47.8103 12.96 47.837 12.9333 47.8903 12.88C47.917 12.88 47.9436 12.8933 47.9703 12.92C48.0236 12.92 48.0636 12.9067 48.0903 12.88L48.2103 12.76H48.6903L48.7303 12.72C48.7836 12.6933 48.8503 12.6667 48.9303 12.64C49.037 12.5867 49.1303 12.56 49.2103 12.56C49.2103 12.5333 49.237 12.52 49.2903 12.52C49.3436 12.4933 49.3836 12.48 49.4103 12.48H49.4903C49.6236 12.48 49.6903 12.52 49.6903 12.6C49.6903 12.68 49.6503 12.7467 49.5703 12.8C49.5436 12.8267 49.5036 12.84 49.4503 12.84C49.397 12.8133 49.3436 12.8133 49.2903 12.84C49.1836 12.9467 49.1036 13 49.0503 13C49.0236 13 49.0103 13 49.0103 13C49.0103 12.9733 48.997 12.96 48.9703 12.96C48.9436 12.96 48.8903 13 48.8103 13.08L48.5303 13.12H48.4903C48.437 13.12 48.4103 13.1467 48.4103 13.2C48.3036 13.2 48.197 13.2133 48.0903 13.24C47.9836 13.24 47.877 13.2533 47.7703 13.28L47.7303 13.32C47.7036 13.32 47.677 13.3333 47.6503 13.36C47.6236 13.36 47.5836 13.36 47.5303 13.36C47.477 13.3867 47.3303 13.4 47.0903 13.4C47.2503 13.6133 47.357 13.8133 47.4103 14C47.4636 14.1333 47.5036 14.3467 47.5303 14.64C47.5836 14.9067 47.597 15.1067 47.5703 15.24C47.5703 15.32 47.5436 15.3467 47.4903 15.32C47.437 15.2667 47.4103 15.2667 47.4103 15.32C47.4103 15.4 47.437 15.4533 47.4903 15.48C47.5703 15.48 47.6103 15.5467 47.6103 15.68C47.6103 15.76 47.597 15.8667 47.5703 16C47.5436 16.1067 47.517 16.2267 47.4903 16.36C47.4636 16.52 47.4236 16.6933 47.3703 16.88C47.3436 17.04 47.277 17.2 47.1703 17.36L47.0503 17.56V17.8C47.0503 18.0133 46.9836 18.16 46.8503 18.24C46.7436 18.32 46.6636 18.4133 46.6103 18.52C46.557 18.68 46.517 18.7867 46.4903 18.84C46.4903 18.8933 46.437 19 46.3303 19.16C45.9836 19.6933 45.5703 20.2 45.0903 20.68C44.6103 21.16 44.1436 21.6 43.6903 22C43.2903 22.3467 42.7436 22.6667 42.0503 22.96C41.3836 23.2267 40.7303 23.36 40.0903 23.36ZM40.4903 22.64C40.5703 22.64 40.7303 22.6267 40.9703 22.6C41.2103 22.5467 41.4636 22.4267 41.7303 22.24C41.7836 22.2133 41.837 22.2267 41.8903 22.28C41.9436 22.3333 41.997 22.3467 42.0503 22.32C42.1836 22.2667 42.237 22.2267 42.2103 22.2C42.1836 22.1733 42.2236 22.1467 42.3303 22.12H42.3703C42.5303 22.12 42.597 22.1067 42.5703 22.08C42.5703 22.0267 42.5836 21.96 42.6103 21.88C42.6103 21.8 42.6503 21.7333 42.7303 21.68C42.8103 21.6267 42.877 21.5867 42.9303 21.56C43.2236 21.32 43.5836 20.92 44.0103 20.36C44.437 19.7733 44.8636 19.1867 45.2903 18.6C45.317 18.5467 45.357 18.5333 45.4103 18.56C45.4636 18.5867 45.5036 18.5867 45.5303 18.56C45.557 18.5333 45.5703 18.4533 45.5703 18.32C45.5703 18.24 45.6103 18.12 45.6903 17.96C45.7703 17.7733 45.8503 17.6267 45.9303 17.52C45.957 17.44 46.0103 17.2933 46.0903 17.08C46.1703 16.84 46.237 16.6267 46.2903 16.44C46.3703 16.2267 46.3836 16.12 46.3303 16.12C46.277 16.0933 46.2503 16.0667 46.2503 16.04C46.2503 15.9867 46.3303 15.9333 46.4903 15.88C46.6503 15.8267 46.637 15.7867 46.4503 15.76C46.397 15.7333 46.4103 15.68 46.4903 15.6C46.5703 15.52 46.5303 15.4667 46.3703 15.44C46.237 15.4133 46.1836 15.3733 46.2103 15.32C46.2636 15.2667 46.3036 15.2267 46.3303 15.2C46.4103 15.12 46.4503 15.04 46.4503 14.96C46.4503 14.72 46.3836 14.48 46.2503 14.24C46.1436 14 46.0236 13.7867 45.8903 13.6C45.7303 13.7067 45.6503 13.76 45.6503 13.76C45.6236 13.76 45.6103 13.76 45.6103 13.76C45.6103 13.7333 45.5836 13.72 45.5303 13.72C45.5036 13.72 45.4903 13.72 45.4903 13.72C45.4903 13.6933 45.477 13.68 45.4503 13.68C45.4236 13.68 45.397 13.6933 45.3703 13.72C45.3436 13.7467 45.3303 13.76 45.3303 13.76C45.3036 13.7867 45.2503 13.8 45.1703 13.8C45.117 13.8 45.077 13.8 45.0503 13.8C45.0236 13.8 44.997 13.7867 44.9703 13.76C44.9703 13.7333 44.957 13.72 44.9303 13.72C44.9036 13.72 44.8636 13.7467 44.8103 13.8C44.7836 13.8533 44.7436 13.88 44.6903 13.88C44.6636 13.88 44.6503 13.8667 44.6503 13.84C44.6503 13.8133 44.6236 13.8 44.5703 13.8C44.5436 13.8 44.517 13.8133 44.4903 13.84C44.4903 13.8667 44.477 13.88 44.4503 13.88C44.4236 13.88 44.3703 13.84 44.2903 13.76H44.2503C44.2503 13.92 44.2103 14 44.1303 14C44.1036 14 44.0636 13.9733 44.0103 13.92C43.717 14.1067 43.2236 14.5467 42.5303 15.24C41.837 15.9067 41.2236 16.68 40.6903 17.56C40.5836 17.7733 40.4503 18.0267 40.2903 18.32C40.157 18.6133 40.037 18.9467 39.9303 19.32C39.9036 19.48 39.8236 19.6 39.6903 19.68C39.5836 19.76 39.5036 19.8533 39.4503 19.96C39.4236 20.0667 39.437 20.1333 39.4903 20.16C39.5436 20.1867 39.5836 20.2267 39.6103 20.28C39.6103 20.3867 39.5836 20.5333 39.5303 20.72C39.5036 20.9067 39.4903 21.08 39.4903 21.24C39.4903 21.7467 39.5836 22.1067 39.7703 22.32C39.9836 22.5333 40.2236 22.64 40.4903 22.64ZM54.1841 25.52C54.1041 25.3867 54.0641 25.2133 54.0641 25C54.0641 24.8933 54.0907 24.76 54.1441 24.6C54.1707 24.52 54.2241 24.2933 54.3041 23.92C54.4107 23.5733 54.5174 23.2267 54.6241 22.88C54.7307 22.5067 54.7974 22.2933 54.8241 22.24C54.8507 22.24 54.9307 22.04 55.0641 21.64C55.2241 21.2133 55.3974 20.76 55.5841 20.28C55.7707 19.8 55.9174 19.4933 56.0241 19.36C56.1307 19.0667 56.3041 18.7067 56.5441 18.28C56.8107 17.8267 57.0507 17.2933 57.2641 16.68L57.1841 16.76C56.8641 17.08 56.4507 17.5733 55.9441 18.24C55.4641 18.88 54.9307 19.5467 54.3441 20.24C53.7574 20.9067 53.1574 21.4933 52.5441 22C51.9574 22.48 51.3974 22.72 50.8641 22.72C50.4374 22.72 49.9441 22.5733 49.3841 22.28C48.8241 21.96 48.5441 21.4 48.5441 20.6C48.5441 20.1467 48.6641 19.6267 48.9041 19.04C48.9041 18.9867 48.9174 18.92 48.9441 18.84C48.9974 18.76 49.0507 18.7067 49.1041 18.68C49.1574 18.6533 49.2107 18.6667 49.2641 18.72C49.3174 18.7467 49.3574 18.7333 49.3841 18.68C49.4107 18.68 49.4641 18.6667 49.5441 18.64C49.6241 18.5867 49.6507 18.5467 49.6241 18.52C49.5974 18.4933 49.5307 18.48 49.4241 18.48C49.3174 18.4533 49.2641 18.4267 49.2641 18.4C49.2374 18.3467 49.2374 18.3067 49.2641 18.28C49.2907 18.2267 49.3041 18.1733 49.3041 18.12C49.3041 18.04 49.3307 17.9867 49.3841 17.96C49.4641 17.9067 49.5174 17.8533 49.5441 17.8C49.5441 17.6667 49.6241 17.5733 49.7841 17.52C49.8107 17.4933 49.8507 17.48 49.9041 17.48C50.0107 17.48 50.0374 17.4533 49.9841 17.4C49.9307 17.32 49.9041 17.24 49.9041 17.16C49.9307 17.1067 49.9707 17.0533 50.0241 17C50.1041 16.92 50.1574 16.8667 50.1841 16.84C50.2374 16.7867 50.3041 16.6933 50.3841 16.56C50.4907 16.4 50.5707 16.3067 50.6241 16.28C50.6774 16.28 50.7041 16.3067 50.7041 16.36C50.7307 16.3867 50.7574 16.3867 50.7841 16.36C50.8374 16.3067 50.8507 16.24 50.8241 16.16C50.7974 16.08 50.8107 16.0133 50.8641 15.96C50.9174 15.9067 50.9974 15.8133 51.1041 15.68C51.2107 15.5467 51.2907 15.4667 51.3441 15.44C51.3974 15.3867 51.4241 15.3867 51.4241 15.44C51.4241 15.4667 51.4374 15.48 51.4641 15.48C51.5174 15.48 51.5574 15.4267 51.5841 15.32C51.6107 15.1867 51.6374 15.1067 51.6641 15.08C51.7174 15.0533 51.7841 15.0533 51.8641 15.08C51.9707 15.08 52.0374 15.0667 52.0641 15.04C52.1174 15.0133 52.1174 14.9733 52.0641 14.92C52.0374 14.84 52.0374 14.7733 52.0641 14.72C52.0641 14.6667 52.0907 14.6267 52.1441 14.6C52.1974 14.5733 52.2374 14.5467 52.2641 14.52C52.5574 14.2533 52.8507 14 53.1441 13.76C53.4641 13.52 53.7841 13.3067 54.1041 13.12C54.1574 13.0933 54.2107 13.0667 54.2641 13.04C54.3441 13.0133 54.4107 13 54.4641 13C54.5174 13 54.5574 13.0133 54.5841 13.04C54.6107 13.0667 54.6374 13.08 54.6641 13.08C54.7174 13.0267 54.7307 12.9867 54.7041 12.96C54.7041 12.9067 54.7174 12.8533 54.7441 12.8C54.7707 12.7467 54.8241 12.7067 54.9041 12.68C54.9841 12.6533 55.0374 12.6267 55.0641 12.6C55.3841 12.4667 55.7041 12.36 56.0241 12.28C56.3441 12.1733 56.6507 12.12 56.9441 12.12C57.3974 12.12 57.8374 12.2267 58.2641 12.44C58.4241 12.44 58.6107 12.4667 58.8241 12.52L59.0641 12.12C59.1174 12.0133 59.2107 11.96 59.3441 11.96H59.4641C59.5441 11.96 59.5841 11.92 59.5841 11.84C59.5841 11.76 59.5441 11.5867 59.4641 11.32C59.4641 11.1067 59.5574 10.9867 59.7441 10.96L59.8241 10.92C59.9307 10.36 60.0774 9.98667 60.2641 9.8L60.5441 9.48C60.8374 9.13333 61.0641 8.76 61.2241 8.36C61.2774 8.25333 61.3441 8.16 61.4241 8.08C61.5307 8 61.6107 7.90667 61.6641 7.8C61.7174 7.72 61.7307 7.64 61.7041 7.56C61.6774 7.45333 61.6774 7.37333 61.7041 7.32C62.1574 6.6 62.6641 5.96 63.2241 5.4C63.2774 5.26667 63.3441 5.13333 63.4241 5C63.5307 4.86667 63.6374 4.73333 63.7441 4.6C63.8774 4.41333 64.0374 4.28 64.2241 4.2C64.4107 4.12 64.5974 3.98667 64.7841 3.8C64.8374 3.74667 64.8507 3.66667 64.8241 3.56C64.8241 3.42667 64.8507 3.33333 64.9041 3.28C65.7574 2.50667 66.7174 1.86667 67.7841 1.36C68.8507 0.826665 69.6907 0.559998 70.3041 0.559998C70.5174 0.559998 70.7174 0.586665 70.9041 0.639999C71.0907 0.666666 71.2907 0.679999 71.5041 0.679999H71.5841C71.7174 0.679999 71.8374 0.719999 71.9441 0.8C72.0774 0.853332 72.2107 0.893332 72.3441 0.919998C72.4507 0.919998 72.5841 0.946665 72.7441 1C72.8774 1.05333 72.9574 1.13333 72.9841 1.24C73.0107 1.34667 72.9974 1.42667 72.9441 1.48C72.9174 1.50667 72.8774 1.50667 72.8241 1.48C72.7707 1.45333 72.7041 1.44 72.6241 1.44C72.5707 1.41333 72.5174 1.38667 72.4641 1.36C72.4107 1.30667 72.3574 1.26667 72.3041 1.24C72.1974 1.24 72.0774 1.26667 71.9441 1.32C71.8374 1.34667 71.7307 1.34667 71.6241 1.32C71.3574 1.32 71.1841 1.29333 71.1041 1.24C71.0241 1.18667 70.8774 1.18667 70.6641 1.24C70.6374 1.24 70.5574 1.25333 70.4241 1.28C70.2907 1.30666 70.1974 1.32 70.1441 1.32C69.2107 1.56 68.3974 1.96 67.7041 2.52C67.0374 3.08 66.4374 3.70667 65.9041 4.4C65.3974 5.06667 64.9041 5.72 64.4241 6.36C64.3174 6.57333 64.2107 6.78667 64.1041 7C63.9974 7.21333 63.8907 7.38667 63.7841 7.52C63.7574 7.54667 63.7307 7.53333 63.7041 7.48C63.6774 7.42667 63.6507 7.42667 63.6241 7.48C63.5441 7.56 63.4907 7.69333 63.4641 7.88C63.4374 8.06667 63.3841 8.21333 63.3041 8.32C63.2774 8.34667 63.2374 8.33333 63.1841 8.28C63.1574 8.2 63.1307 8.18667 63.1041 8.24C63.0774 8.29333 63.0507 8.4 63.0241 8.56C62.9974 8.72 62.9574 8.82667 62.9041 8.88C62.6107 9.33333 62.2774 9.76 61.9041 10.16C61.5574 10.56 61.2241 11.04 60.9041 11.6C60.3974 12.4267 59.8107 13.4267 59.1441 14.6C58.4774 15.7467 57.9041 16.8 57.4241 17.76C57.2374 18.1067 57.1041 18.4133 57.0241 18.68C56.9441 18.92 56.8641 19.1467 56.7841 19.36C56.7307 19.52 56.7041 19.6133 56.7041 19.64C56.7041 19.8533 56.8241 19.96 57.0641 19.96C57.1441 19.96 57.2241 19.9467 57.3041 19.92C57.3841 19.8667 57.4641 19.8267 57.5441 19.8C57.6241 19.7467 57.7174 19.7067 57.8241 19.68C57.9307 19.6533 58.0241 19.6133 58.1041 19.56C58.1307 19.5333 58.2907 19.44 58.5841 19.28C58.8774 19.0933 59.1574 18.8667 59.4241 18.6C59.4774 18.5733 59.5441 18.52 59.6241 18.44C59.7041 18.36 59.7574 18.3067 59.7841 18.28L60.2241 17.92C60.2774 17.84 60.3441 17.8 60.4241 17.8C60.5307 17.8 60.6107 17.8533 60.6641 17.96C60.7174 18.0667 60.7041 18.1733 60.6241 18.28C60.5974 18.3333 60.5174 18.4 60.3841 18.48C60.2507 18.5333 60.1174 18.6267 59.9841 18.76C59.7707 18.9467 59.5174 19.1467 59.2241 19.36C58.9574 19.5733 58.7041 19.76 58.4641 19.92C58.3574 19.9733 58.2374 20.0533 58.1041 20.16C57.9707 20.24 57.8774 20.3333 57.8241 20.44L57.4641 21C57.4641 21.0533 57.4374 21.08 57.3841 21.08C57.3574 21.0533 57.2774 21.0933 57.1441 21.2C57.1174 21.2267 57.1041 21.28 57.1041 21.36C57.1041 21.44 57.0774 21.5067 57.0241 21.56C56.9974 21.64 56.9574 21.7067 56.9041 21.76C56.8507 21.7867 56.8241 21.8133 56.8241 21.84C56.8241 21.92 56.7841 21.9733 56.7041 22C56.6241 22.0267 56.5574 22.0667 56.5041 22.12C56.4774 22.1467 56.4774 22.1867 56.5041 22.24C56.5307 22.2933 56.5307 22.3467 56.5041 22.4L56.1441 23.24C56.1174 23.2933 56.0774 23.3467 56.0241 23.4C55.9974 23.4533 55.9574 23.4933 55.9041 23.52C55.8774 23.5467 55.8374 23.5333 55.7841 23.48C55.7307 23.4533 55.6907 23.4667 55.6641 23.52C55.6641 23.5733 55.6774 23.6533 55.7041 23.76C55.7574 23.8667 55.7441 23.9467 55.6641 24C55.5841 24.0533 55.5174 24.16 55.4641 24.32C55.4107 24.5067 55.3574 24.64 55.3041 24.72C55.2241 24.8267 55.1307 24.8933 55.0241 24.92C54.9441 24.9467 54.8641 25.0267 54.7841 25.16C54.7574 25.1867 54.6641 25.2933 54.5041 25.48C54.3707 25.6933 54.2641 25.7067 54.1841 25.52ZM50.2241 22C50.3041 22 50.4241 21.9733 50.5841 21.92C51.3307 21.52 51.9841 21.1067 52.5441 20.68C52.5441 20.6533 52.6241 20.6133 52.7841 20.56C52.9441 20.5067 53.0107 20.4667 52.9841 20.44L53.1841 20.4C53.1841 20.4 53.2241 20.4133 53.3041 20.44C53.3841 20.4667 53.3974 20.4267 53.3441 20.32C53.4774 20.1867 53.5041 20.1067 53.4241 20.08C53.3441 20.0533 53.3174 20.04 53.3441 20.04C53.4241 19.9067 53.4907 19.84 53.5441 19.84C53.5974 19.84 53.6774 19.7867 53.7841 19.68C53.8641 19.6267 53.9441 19.5733 54.0241 19.52C54.1041 19.44 54.1707 19.3733 54.2241 19.32C54.2241 19.2933 54.2241 19.28 54.2241 19.28C54.2507 19.2533 54.2641 19.2267 54.2641 19.2C54.2641 19.2 54.3041 19.2 54.3841 19.2C54.4907 19.1733 54.5574 19.12 54.5841 19.04C54.8241 18.9867 54.8641 18.96 54.7041 18.96C54.5441 18.9333 54.4641 18.9067 54.4641 18.88C54.4641 18.88 54.5174 18.84 54.6241 18.76C54.7307 18.68 54.7574 18.6267 54.7041 18.6V18.56L54.8241 18.4L54.9841 18.36L55.0241 18.24C55.0241 18.16 55.1174 18.08 55.3041 18C55.5174 17.8933 55.6374 17.8 55.6641 17.72C56.0641 17.1867 56.3974 16.72 56.6641 16.32C56.9574 15.8933 57.1574 15.5467 57.2641 15.28C57.3174 15.1733 57.3707 15.08 57.4241 15C57.4774 14.92 57.5307 14.84 57.5841 14.76C57.6374 14.5467 57.6907 14.3467 57.7441 14.16C57.7974 13.9467 57.8641 13.72 57.9441 13.48C57.8374 13.4533 57.6641 13.44 57.4241 13.44C57.0241 13.44 56.5574 13.52 56.0241 13.68C55.5174 13.84 54.9574 14.1467 54.3441 14.6C54.2374 14.68 54.1041 14.8 53.9441 14.96C53.8107 15.12 53.6907 15.1867 53.5841 15.16H53.5041C53.4241 15.16 53.3841 15.2133 53.3841 15.32C53.4107 15.4 53.3707 15.4933 53.2641 15.6C53.2107 15.6533 53.1441 15.7067 53.0641 15.76C52.9841 15.7867 52.8907 15.8533 52.7841 15.96C52.7307 16.0133 52.6907 16.08 52.6641 16.16C52.6374 16.2133 52.5841 16.28 52.5041 16.36C52.3974 16.4933 52.2641 16.64 52.1041 16.8C51.9707 16.9333 51.8507 17.0533 51.7441 17.16C51.6374 17.2667 51.5041 17.4 51.3441 17.56C51.2107 17.72 51.1041 17.88 51.0241 18.04C50.9974 18.0667 50.9574 18.04 50.9041 17.96C50.8507 17.88 50.8107 17.8533 50.7841 17.88V17.92C50.7841 17.9733 50.8107 18.0533 50.8641 18.16C50.9174 18.24 50.9174 18.3067 50.8641 18.36C50.8374 18.4133 50.7841 18.52 50.7041 18.68C50.6507 18.84 50.5974 18.96 50.5441 19.04C50.3307 19.4667 50.1441 19.8933 49.9841 20.32C49.8507 20.7467 49.7841 21.1067 49.7841 21.4C49.7841 21.8 49.9307 22 50.2241 22ZM60.7 25.32C60.5933 25.32 60.4867 25.2667 60.38 25.16C60.2733 25.0533 60.2333 24.9867 60.26 24.96C60.2867 24.8267 60.3267 24.6933 60.38 24.56C60.4333 24.4267 60.4867 24.3067 60.54 24.2C60.8333 23.5867 61.2333 23.0133 61.74 22.48C62.2733 21.92 62.8333 21.3867 63.42 20.88C63.2067 20.8267 63.0733 20.8 63.02 20.8C62.78 20.8267 62.5933 20.88 62.46 20.96C62.3533 21.04 62.1533 21.12 61.86 21.2C61.7533 21.2267 61.66 21.2533 61.58 21.28C61.5 21.28 61.4333 21.28 61.38 21.28C61.1667 21.28 61.06 21.2133 61.06 21.08C61.06 21.0267 61.0867 20.96 61.14 20.88C61.22 20.7733 61.2733 20.7067 61.3 20.68C61.62 20.3333 61.98 20.04 62.38 19.8C62.78 19.56 63.2067 19.44 63.66 19.44C64.0333 19.44 64.4333 19.5467 64.86 19.76L65.34 19.36C65.6067 19.1467 65.8733 18.9333 66.14 18.72C66.4067 18.48 66.6733 18.24 66.94 18C66.8333 18 66.82 17.9867 66.9 17.96C66.98 17.9067 66.9667 17.88 66.86 17.88H66.78C66.4333 17.88 66.26 17.9333 66.26 18.04C66.26 18.0933 66.1267 18.16 65.86 18.24C65.5933 18.2933 65.4467 18.32 65.42 18.32L64.14 18.6C63.9533 18.6 63.86 18.4667 63.86 18.2C63.8333 18.0667 63.8733 17.9467 63.98 17.84C64.0067 17.8133 64.0333 17.8 64.06 17.8L64.82 17.68C64.98 17.6533 65.1933 17.6267 65.46 17.6C65.7267 17.5733 65.9533 17.5333 66.14 17.48L67.3 17.36H67.54C67.8333 17.04 68.1133 16.76 68.38 16.52C68.4333 16.4933 68.4867 16.5067 68.54 16.56C68.5933 16.5867 68.6333 16.5867 68.66 16.56C68.7133 16.5067 68.74 16.44 68.74 16.36C68.7667 16.28 68.82 16.2133 68.9 16.16C69.1667 15.9467 69.42 15.6933 69.66 15.4C69.9267 15.1067 70.2067 14.8267 70.5 14.56H70.38C70.14 14.56 69.9267 14.4933 69.74 14.36H69.62C69.46 14.36 69.26 14.3333 69.02 14.28C68.8067 14.2 68.7133 14.1067 68.74 14L68.66 13.88C68.6333 13.88 68.5933 13.8933 68.54 13.92C68.5133 13.92 68.4733 13.92 68.42 13.92C68.3133 13.92 68.0733 13.8667 67.7 13.76C67.3267 13.6533 66.9533 13.5467 66.58 13.44C66.42 13.3867 66.26 13.36 66.1 13.36C65.9667 13.36 65.8733 13.32 65.82 13.24H65.74C65.3933 13.4267 65.0867 13.6533 64.82 13.92C64.5533 14.16 64.3933 14.4267 64.34 14.72C64.3133 14.8267 64.2333 14.88 64.1 14.88C63.9933 14.8533 63.9533 14.7867 63.98 14.68C64.0333 14.3067 64.2067 13.9733 64.5 13.68C64.82 13.3867 65.1533 13.1467 65.5 12.96C65.5267 12.9333 65.54 12.92 65.54 12.92C65.54 12.8933 65.54 12.88 65.54 12.88C65.6467 12.72 65.8333 12.56 66.1 12.4C66.3667 12.2133 66.5933 12.0933 66.78 12.04C66.8067 11.9867 66.8467 11.9467 66.9 11.92C66.98 11.8933 67.0333 11.8667 67.06 11.84C67.14 11.7867 67.2333 11.76 67.34 11.76C67.3933 11.76 67.4467 11.7733 67.5 11.8C67.5533 11.8 67.6333 11.8133 67.74 11.84C67.8467 11.7867 67.94 11.76 68.02 11.76C68.1267 11.7333 68.22 11.72 68.3 11.72C68.3533 11.72 68.4867 11.7467 68.7 11.8C68.9133 11.8267 69.0867 11.9467 69.22 12.16C69.8867 13.0667 70.7 13.6 71.66 13.76C71.7667 13.7867 71.94 13.7867 72.18 13.76C72.4467 13.7333 72.6333 13.7333 72.74 13.76C73.22 13.4933 73.62 13.2 73.94 12.88C74.2067 12.6667 74.3533 12.4533 74.38 12.24C74.38 12.1867 74.42 12.16 74.5 12.16C74.58 12.1333 74.62 12.1067 74.62 12.08C74.7 11.9733 74.78 11.92 74.86 11.92C75.0733 11.92 75.1267 12.0133 75.02 12.2L74.7 12.6C74.7 12.6533 74.66 12.7067 74.58 12.76C74.1 13.1867 73.6467 13.6667 73.22 14.2C72.82 14.7067 72.3533 15.1333 71.82 15.48C71.7933 15.5067 71.74 15.52 71.66 15.52C71.5267 15.52 71.3667 15.4933 71.18 15.44C71.02 15.36 70.8867 15.3467 70.78 15.4C70.38 15.6933 69.98 16 69.58 16.32C69.18 16.6133 68.7667 16.9333 68.34 17.28L68.94 17.2C69.02 17.1733 69.0467 17.1733 69.02 17.2C69.02 17.2267 69.06 17.24 69.14 17.24C69.2733 17.2133 69.3533 17.2 69.38 17.2C69.4333 17.1733 69.5133 17.16 69.62 17.16C70.1 17.1067 70.5267 17.08 70.9 17.08C71.0067 17.08 71.1267 17.08 71.26 17.08C71.3933 17.08 71.5 17.0933 71.58 17.12C71.6333 17.12 71.6467 17.1333 71.62 17.16C71.62 17.16 71.6333 17.1733 71.66 17.2C71.7133 17.2 71.7533 17.2 71.78 17.2C71.8067 17.1733 71.8467 17.1467 71.9 17.12C71.9267 17.12 71.9667 17.12 72.02 17.12C72.0733 17.12 72.1133 17.1333 72.14 17.16C72.3267 17.16 72.4467 17.1733 72.5 17.2C72.6333 17.2267 72.7 17.28 72.7 17.36C72.7267 17.44 72.6733 17.4667 72.54 17.44C72.5133 17.44 72.4733 17.44 72.42 17.44C72.3933 17.4133 72.3533 17.4 72.3 17.4H72.02C71.8067 17.4 71.5533 17.4 71.26 17.4C70.9933 17.4 70.74 17.4133 70.5 17.44C70.4733 17.44 70.46 17.4267 70.46 17.4C70.46 17.3467 70.4333 17.32 70.38 17.32C70.38 17.32 70.3533 17.3467 70.3 17.4C70.2467 17.4267 70.2067 17.44 70.18 17.44C70.1533 17.44 70.1267 17.4533 70.1 17.48C70.0733 17.48 70.0333 17.48 69.98 17.48L67.54 17.92L67.5 17.96C67.18 18.28 66.8467 18.5867 66.5 18.88C66.1533 19.1733 65.7933 19.4667 65.42 19.76C65.3933 19.7867 65.3667 19.8267 65.34 19.88C65.3133 19.9067 65.2733 19.9333 65.22 19.96C65.7 20.28 66.14 20.6667 66.54 21.12C66.9667 21.5733 67.3267 21.9467 67.62 22.24C68.2067 22.8 68.9667 23.1733 69.9 23.36C70.8333 23.5467 71.6333 23.6 72.3 23.52C72.54 23.4667 72.74 23.36 72.9 23.2C73.0867 23.04 73.2333 22.8667 73.34 22.68V22.64C73.34 22.6133 73.3667 22.5733 73.42 22.52C73.5 22.4667 73.5533 22.4667 73.58 22.52C73.6067 22.52 73.58 22.5733 73.5 22.68C73.4467 22.7867 73.42 22.84 73.42 22.84C73.4733 22.8667 73.5 22.92 73.5 23C73.5 23.1067 73.5133 23.16 73.54 23.16C73.5933 23.16 73.6467 23.12 73.7 23.04C73.78 22.96 73.82 22.9067 73.82 22.88C73.9 22.7467 73.9533 22.6133 73.98 22.48C74.0333 22.32 74.0733 22.1867 74.1 22.08C74.18 21.76 74.22 21.4 74.22 21C74.22 20.6 74.1533 20.2267 74.02 19.88C73.8867 19.5067 73.6333 19.2933 73.26 19.24C73.2067 19.24 73.18 19.2133 73.18 19.16C73.18 19.1067 73.22 19.04 73.3 18.96C73.38 18.88 73.46 18.8533 73.54 18.88C73.9933 18.9333 74.2867 19.16 74.42 19.56C74.58 19.9333 74.66 20.3467 74.66 20.8C74.66 21.2 74.62 21.5867 74.54 21.96C74.5133 22.12 74.46 22.3067 74.38 22.52C74.3267 22.7067 74.2333 22.8933 74.1 23.08C73.94 23.8267 73.58 24.36 73.02 24.68C72.4867 25 71.9 25.16 71.26 25.16C70.7 25.16 70.1533 25.0533 69.62 24.84C69.0867 24.6267 68.6467 24.3333 68.3 23.96C67.98 23.5867 67.66 23.1867 67.34 22.76C67.02 22.3333 66.6733 21.9467 66.3 21.6C66.1133 21.4133 65.9133 21.24 65.7 21.08C65.4867 20.8933 65.2333 20.8 64.94 20.8C64.78 20.8 64.66 20.8133 64.58 20.84C64.34 20.92 64.14 20.96 63.98 20.96L63.06 21.68C62.82 21.8667 62.5933 22.08 62.38 22.32C62.1667 22.56 61.9533 22.7867 61.74 23C61.7133 23.0267 61.66 23.0933 61.58 23.2C61.5267 23.3333 61.4867 23.4 61.46 23.4C61.22 23.72 61.06 24 60.98 24.24C60.98 24.2667 61.0067 24.3467 61.06 24.48C61.1133 24.64 61.1267 24.76 61.1 24.84L60.82 25.28C60.7933 25.3067 60.7533 25.32 60.7 25.32ZM81.3141 10.52C81.2341 10.52 81.1541 10.4933 81.0741 10.44C81.0207 10.3867 80.9407 10.32 80.8341 10.24C80.7807 10.2133 80.7141 10.1867 80.6341 10.16C80.5807 10.1067 80.5541 10.0267 80.5541 9.92C80.5274 9.89333 80.4741 9.88 80.3941 9.88C80.2607 9.88 80.1941 9.78667 80.1941 9.6C80.1941 9.38667 80.3007 9.24 80.5141 9.16L80.7141 9V9.04L80.8741 8.84H80.9541C81.1141 8.84 81.2207 8.76 81.2741 8.6C81.3541 8.44 81.5141 8.33333 81.7541 8.28C81.9141 8.22667 82.0474 8.24 82.1541 8.32C82.2607 8.4 82.3941 8.44 82.5541 8.44C82.7141 8.44 82.8874 8.38667 83.0741 8.28L83.6741 8.16C83.7541 8.16 83.7941 8.18667 83.7941 8.24C83.7941 8.29333 83.7141 8.36 83.5541 8.44C83.4207 8.52 83.3274 8.58667 83.2741 8.64L83.2341 8.68L83.1941 8.76L83.0341 8.96C82.8741 9.14667 82.6874 9.37333 82.4741 9.64C82.2874 9.88 82.0874 10.08 81.8741 10.24C81.6341 10.4267 81.4474 10.52 81.3141 10.52ZM75.2341 23.12C75.0741 23.12 74.9941 23.0267 74.9941 22.84C74.9941 22.7067 75.0341 22.5467 75.1141 22.36C75.3274 21.9067 75.5674 21.2667 75.8341 20.44C76.1274 19.6133 76.4874 18.9067 76.9141 18.32C77.2074 17.7333 77.4741 17.16 77.7141 16.6C77.9807 16.0133 78.2341 15.4267 78.4741 14.84C78.4741 14.84 78.4474 14.8267 78.3941 14.8C78.3674 14.7467 78.3541 14.6933 78.3541 14.64C78.1941 14.5333 78.0207 14.3867 77.8341 14.2C77.6741 13.9867 77.6607 13.7733 77.7941 13.56C77.8474 13.5067 77.8874 13.48 77.9141 13.48C77.9407 13.48 77.9541 13.48 77.9541 13.48C77.9541 13.4533 77.9407 13.44 77.9141 13.44C77.9141 13.4133 77.9141 13.4 77.9141 13.4C77.9141 13.2933 77.9674 13.2267 78.0741 13.2C78.1807 13.1733 78.2341 13.1333 78.2341 13.08C78.2874 12.7067 78.6074 12.4267 79.1941 12.24C79.7807 12.0533 80.3007 11.96 80.7541 11.96C81.2074 11.96 81.4341 12.0267 81.4341 12.16C81.4341 12.2133 81.3541 12.3067 81.1941 12.44C81.1141 12.4933 80.9807 12.6133 80.7941 12.8C80.6074 12.9867 80.4341 13.2133 80.2741 13.48L79.9541 13.96C79.9274 14.0133 79.8874 14.08 79.8341 14.16C79.8074 14.2133 79.7674 14.2667 79.7141 14.32C79.2874 15.0933 78.9407 15.7467 78.6741 16.28C78.4074 16.8133 78.0874 17.4933 77.7141 18.32C77.6607 18.48 77.6341 18.5867 77.6341 18.64C77.6341 18.8267 77.7407 18.92 77.9541 18.92C78.1141 18.92 78.2741 18.88 78.4341 18.8L78.8341 18.64C79.4741 18.0533 80.1407 17.56 80.8341 17.16C80.8607 17.16 80.8741 17.16 80.8741 17.16C80.9007 17.1333 80.9274 17.12 80.9541 17.12C81.0341 17.12 81.0874 17.1733 81.1141 17.28C81.1407 17.36 81.1141 17.4267 81.0341 17.48C80.2607 17.9067 79.5407 18.4533 78.8741 19.12C78.8474 19.1733 78.8207 19.2267 78.7941 19.28C78.7674 19.3333 78.7274 19.3867 78.6741 19.44C78.6207 19.4933 78.5407 19.5867 78.4341 19.72C78.3541 19.8533 78.3141 19.9333 78.3141 19.96C78.2874 20.04 78.2474 20.0667 78.1941 20.04C78.1674 20.0133 78.0874 20.0533 77.9541 20.16C77.9274 20.1867 77.9007 20.24 77.8741 20.32C77.8741 20.4 77.8607 20.4667 77.8341 20.52C77.8074 20.6 77.7541 20.6667 77.6741 20.72C77.6207 20.7467 77.5941 20.7733 77.5941 20.8C77.5674 20.9067 77.5141 20.9733 77.4341 21C77.3807 21 77.3274 21.0267 77.2741 21.08C77.2474 21.1067 77.2474 21.1467 77.2741 21.2C77.3007 21.2533 77.2874 21.3067 77.2341 21.36C77.2074 21.44 77.1807 21.48 77.1541 21.48C77.1274 21.4533 77.0874 21.4667 77.0341 21.52C76.9274 21.6267 76.8474 21.68 76.7941 21.68C76.6341 21.7333 76.5674 21.7733 76.5941 21.8C76.6474 21.8267 76.6874 21.8533 76.7141 21.88C76.7674 21.88 76.7274 21.92 76.5941 22C76.5407 22.0267 76.4874 22.1067 76.4341 22.24C76.3807 22.3467 76.3274 22.4267 76.2741 22.48C76.1941 22.5333 76.1141 22.5733 76.0341 22.6C75.9807 22.6267 75.9141 22.68 75.8341 22.76C75.5941 23 75.3941 23.12 75.2341 23.12ZM81.9138 23.12C81.7538 23.12 81.6738 23.0267 81.6738 22.84C81.6738 22.7067 81.7138 22.5467 81.7938 22.36C82.0071 21.9067 82.2471 21.2667 82.5138 20.44C82.8071 19.6133 83.1671 18.9067 83.5938 18.32C83.7271 18.0267 83.9271 17.6667 84.1938 17.24C84.4871 16.7867 84.7671 16.2533 85.0338 15.64V15.44C85.0338 15.36 85.0338 15.2933 85.0338 15.24C85.0604 15.16 85.0871 15.08 85.1138 15C85.2204 14.7867 85.3138 14.64 85.3938 14.56C85.5004 14.48 85.6071 14.3333 85.7138 14.12C85.7138 14.0667 85.7138 14.0133 85.7138 13.96C85.7404 13.9067 85.7671 13.8533 85.7938 13.8C85.7404 13.8533 85.7271 13.8133 85.7538 13.68C85.7004 13.68 85.7538 13.5467 85.9138 13.28C86.0204 13.04 86.1004 12.9067 86.1538 12.88H86.1938C86.3004 12.72 86.3938 12.5867 86.4738 12.48C86.5538 12.3467 86.5804 12.2667 86.5538 12.24V12.16C86.5538 11.9733 86.6071 11.8 86.7138 11.64C86.8471 11.48 86.9671 11.3067 87.0738 11.12C87.1538 11.0133 87.2204 10.96 87.2738 10.96C87.3271 10.96 87.3538 10.9733 87.3538 11C87.3804 11 87.4071 11 87.4338 11C87.5138 11 87.5538 10.9333 87.5538 10.8C87.5538 10.7467 87.5404 10.68 87.5138 10.6C87.5138 10.52 87.5004 10.4267 87.4737 10.32C87.5004 10.1867 87.6071 10.08 87.7938 10L87.9138 9.96C88.0471 9.4 88.2071 9.02667 88.3938 8.84C88.4471 8.78667 88.5004 8.73333 88.5538 8.68C88.6071 8.62667 88.6604 8.57333 88.7138 8.52C89.0338 8.17333 89.2738 7.8 89.4338 7.4C89.4871 7.29333 89.5538 7.21333 89.6338 7.16C89.7404 7.08 89.8338 6.98667 89.9138 6.88C89.9671 6.8 89.9804 6.72 89.9538 6.64C89.9538 6.53333 89.9671 6.44 89.9938 6.36C90.1271 6.14667 90.2204 6.02667 90.2738 6C90.3271 5.97333 90.3804 5.94667 90.4338 5.92C90.5138 5.86667 90.6471 5.74667 90.8338 5.56C90.9138 5.42667 90.9938 5.29333 91.0738 5.16C91.1804 5.02667 91.2871 4.89333 91.3938 4.76C91.5538 4.57333 91.7271 4.44 91.9138 4.36C92.1004 4.28 92.2871 4.16 92.4738 4C92.5271 3.94667 92.5538 3.86667 92.5538 3.76C92.5538 3.62667 92.5804 3.53333 92.6338 3.48C93.5671 2.73333 94.5671 2.10667 95.6338 1.6C96.7271 1.09333 97.5671 0.839999 98.1538 0.839999C98.3671 0.839999 98.5671 0.853332 98.7538 0.879999C98.9671 0.906665 99.1671 0.946665 99.3538 1H99.4338C99.5671 1 99.7004 1.02667 99.8338 1.08C99.9671 1.13333 100.087 1.18667 100.194 1.24C100.3 1.24 100.434 1.26667 100.594 1.32C100.727 1.37333 100.807 1.45333 100.834 1.56C100.86 1.66667 100.834 1.74667 100.754 1.8C100.727 1.82667 100.687 1.82667 100.634 1.8C100.58 1.77333 100.527 1.76 100.474 1.76C100.42 1.76 100.367 1.73333 100.314 1.68C100.26 1.62667 100.207 1.58667 100.154 1.56C100.047 1.56 99.9271 1.57333 99.7938 1.6C99.6871 1.62667 99.5671 1.64 99.4338 1.64H99.3138C99.1271 1.64 98.9938 1.61333 98.9138 1.56C98.8604 1.48 98.7271 1.46667 98.5138 1.52C98.4871 1.52 98.4071 1.53333 98.2738 1.56C98.1404 1.58667 98.0471 1.6 97.9938 1.6C97.0338 1.84 96.1938 2.24 95.4738 2.8C94.7538 3.33333 94.1138 3.93333 93.5538 4.6C93.0204 5.26667 92.5004 5.90667 91.9938 6.52C91.7538 7 91.5138 7.38667 91.2738 7.68C91.2471 7.70667 91.2204 7.69333 91.1938 7.64C91.1671 7.58667 91.1404 7.58667 91.1138 7.64C91.0338 7.72 90.9671 7.85333 90.9138 8.04C90.8871 8.2 90.8338 8.33333 90.7538 8.44C90.7271 8.46667 90.7004 8.45333 90.6738 8.4C90.6471 8.34667 90.6071 8.34667 90.5538 8.4C90.5271 8.42667 90.4871 8.53333 90.4338 8.72C90.4071 8.88 90.3671 8.98667 90.3138 9.04C89.9938 9.46667 89.6471 9.88 89.2738 10.28C88.9004 10.68 88.5271 11.1467 88.1538 11.68C87.6204 12.5067 87.1138 13.32 86.6338 14.12C86.1538 14.92 85.6471 15.8 85.1138 16.76C84.9271 17.08 84.7804 17.3733 84.6738 17.64C84.5938 17.88 84.5004 18.1067 84.3938 18.32C84.3404 18.4 84.3138 18.5067 84.3138 18.64C84.3138 18.8267 84.4204 18.92 84.6338 18.92C84.7938 18.92 84.9538 18.88 85.1138 18.8L85.5138 18.64C86.1538 18.0533 86.8204 17.56 87.5138 17.16C87.5404 17.16 87.5538 17.16 87.5538 17.16C87.5804 17.1333 87.6071 17.12 87.6338 17.12C87.7138 17.12 87.7671 17.1733 87.7938 17.28C87.8204 17.36 87.7938 17.4267 87.7138 17.48C86.9404 17.9067 86.2204 18.4533 85.5538 19.12C85.5271 19.1733 85.5004 19.2267 85.4738 19.28C85.4471 19.3333 85.4071 19.3867 85.3538 19.44C85.3004 19.4933 85.2204 19.5867 85.1138 19.72C85.0338 19.8533 84.9938 19.9333 84.9938 19.96C84.9671 20.04 84.9271 20.0667 84.8738 20.04C84.8471 20.0133 84.7671 20.0533 84.6338 20.16C84.6071 20.1867 84.5804 20.24 84.5538 20.32C84.5538 20.4 84.5404 20.4667 84.5138 20.52C84.4871 20.6 84.4338 20.6667 84.3538 20.72C84.3004 20.7467 84.2738 20.7733 84.2738 20.8C84.2471 20.9067 84.1938 20.9733 84.1138 21C84.0604 21 84.0071 21.0267 83.9538 21.08C83.9271 21.1067 83.9271 21.1467 83.9538 21.2C83.9804 21.2533 83.9671 21.3067 83.9138 21.36C83.8871 21.44 83.8604 21.48 83.8338 21.48C83.8071 21.4533 83.7671 21.4667 83.7138 21.52C83.6071 21.6267 83.5271 21.68 83.4738 21.68C83.3138 21.7333 83.2471 21.7733 83.2738 21.8C83.3271 21.8267 83.3671 21.8533 83.3938 21.88C83.4471 21.88 83.4071 21.92 83.2738 22C83.2204 22.0267 83.1671 22.1067 83.1138 22.24C83.0604 22.3467 83.0071 22.4267 82.9538 22.48C82.8738 22.5333 82.7938 22.5733 82.7138 22.6C82.6604 22.6267 82.5938 22.68 82.5138 22.76C82.2738 23 82.0738 23.12 81.9138 23.12ZM88.8278 23.12C88.6678 23.12 88.5878 23.0267 88.5878 22.84C88.5878 22.7067 88.6278 22.5467 88.7078 22.36C88.9211 21.9067 89.1611 21.2667 89.4278 20.44C89.7211 19.6133 90.0811 18.9067 90.5078 18.32C90.6411 18.0267 90.8411 17.6667 91.1078 17.24C91.4011 16.7867 91.6811 16.2533 91.9478 15.64V15.44C91.9478 15.36 91.9478 15.2933 91.9478 15.24C91.9745 15.16 92.0011 15.08 92.0278 15C92.1345 14.7867 92.2278 14.64 92.3078 14.56C92.4145 14.48 92.5211 14.3333 92.6278 14.12C92.6278 14.0667 92.6278 14.0133 92.6278 13.96C92.6545 13.9067 92.6811 13.8533 92.7078 13.8C92.6545 13.8533 92.6411 13.8133 92.6678 13.68C92.6145 13.68 92.6678 13.5467 92.8278 13.28C92.9345 13.04 93.0145 12.9067 93.0678 12.88H93.1078C93.2145 12.72 93.3078 12.5867 93.3878 12.48C93.4678 12.3467 93.4945 12.2667 93.4678 12.24V12.16C93.4678 11.9733 93.5211 11.8 93.6278 11.64C93.7611 11.48 93.8811 11.3067 93.9878 11.12C94.0678 11.0133 94.1345 10.96 94.1878 10.96C94.2411 10.96 94.2678 10.9733 94.2678 11C94.2945 11 94.3211 11 94.3478 11C94.4278 11 94.4678 10.9333 94.4678 10.8C94.4678 10.7467 94.4545 10.68 94.4278 10.6C94.4278 10.52 94.4145 10.4267 94.3878 10.32C94.4145 10.1867 94.5211 10.08 94.7078 10L94.8278 9.96C94.9611 9.4 95.1211 9.02667 95.3078 8.84C95.3611 8.78667 95.4145 8.73333 95.4678 8.68C95.5211 8.62667 95.5745 8.57333 95.6278 8.52C95.9478 8.17333 96.1878 7.8 96.3478 7.4C96.4011 7.29333 96.4678 7.21333 96.5478 7.16C96.6545 7.08 96.7478 6.98667 96.8278 6.88C96.8811 6.8 96.8945 6.72 96.8678 6.64C96.8678 6.53333 96.8811 6.44 96.9078 6.36C97.0411 6.14667 97.1345 6.02667 97.1878 6C97.2411 5.97333 97.2945 5.94667 97.3478 5.92C97.4278 5.86667 97.5611 5.74667 97.7478 5.56C97.8278 5.42667 97.9078 5.29333 97.9878 5.16C98.0945 5.02667 98.2011 4.89333 98.3078 4.76C98.4678 4.57333 98.6411 4.44 98.8278 4.36C99.0145 4.28 99.2011 4.16 99.3878 4C99.4411 3.94667 99.4678 3.86667 99.4678 3.76C99.4678 3.62667 99.4945 3.53333 99.5478 3.48C100.481 2.73333 101.481 2.10667 102.548 1.6C103.641 1.09333 104.481 0.839999 105.068 0.839999C105.281 0.839999 105.481 0.853332 105.668 0.879999C105.881 0.906665 106.081 0.946665 106.268 1H106.348C106.481 1 106.614 1.02667 106.748 1.08C106.881 1.13333 107.001 1.18667 107.108 1.24C107.214 1.24 107.348 1.26667 107.508 1.32C107.641 1.37333 107.721 1.45333 107.748 1.56C107.774 1.66667 107.748 1.74667 107.668 1.8C107.641 1.82667 107.601 1.82667 107.548 1.8C107.494 1.77333 107.441 1.76 107.388 1.76C107.334 1.76 107.281 1.73333 107.228 1.68C107.174 1.62667 107.121 1.58667 107.068 1.56C106.961 1.56 106.841 1.57333 106.708 1.6C106.601 1.62667 106.481 1.64 106.348 1.64H106.228C106.041 1.64 105.908 1.61333 105.828 1.56C105.774 1.48 105.641 1.46667 105.428 1.52C105.401 1.52 105.321 1.53333 105.188 1.56C105.054 1.58667 104.961 1.6 104.908 1.6C103.948 1.84 103.108 2.24 102.388 2.8C101.668 3.33333 101.028 3.93333 100.468 4.6C99.9345 5.26667 99.4145 5.90667 98.9078 6.52C98.6678 7 98.4278 7.38667 98.1878 7.68C98.1611 7.70667 98.1345 7.69333 98.1078 7.64C98.0811 7.58667 98.0545 7.58667 98.0278 7.64C97.9478 7.72 97.8811 7.85333 97.8278 8.04C97.8011 8.2 97.7478 8.33333 97.6678 8.44C97.6411 8.46667 97.6145 8.45333 97.5878 8.4C97.5611 8.34667 97.5211 8.34667 97.4678 8.4C97.4411 8.42667 97.4011 8.53333 97.3478 8.72C97.3211 8.88 97.2811 8.98667 97.2278 9.04C96.9078 9.46667 96.5611 9.88 96.1878 10.28C95.8145 10.68 95.4411 11.1467 95.0678 11.68C94.5345 12.5067 94.0278 13.32 93.5478 14.12C93.0678 14.92 92.5611 15.8 92.0278 16.76C91.8411 17.08 91.6945 17.3733 91.5878 17.64C91.5078 17.88 91.4145 18.1067 91.3078 18.32C91.2545 18.4 91.2278 18.5067 91.2278 18.64C91.2278 18.8267 91.3345 18.92 91.5478 18.92C91.7078 18.92 91.8678 18.88 92.0278 18.8L92.4278 18.64C93.0678 18.0533 93.7345 17.56 94.4278 17.16C94.4545 17.16 94.4678 17.16 94.4678 17.16C94.4945 17.1333 94.5211 17.12 94.5478 17.12C94.6278 17.12 94.6811 17.1733 94.7078 17.28C94.7345 17.36 94.7078 17.4267 94.6278 17.48C93.8545 17.9067 93.1345 18.4533 92.4678 19.12C92.4411 19.1733 92.4145 19.2267 92.3878 19.28C92.3611 19.3333 92.3211 19.3867 92.2678 19.44C92.2145 19.4933 92.1345 19.5867 92.0278 19.72C91.9478 19.8533 91.9078 19.9333 91.9078 19.96C91.8811 20.04 91.8411 20.0667 91.7878 20.04C91.7611 20.0133 91.6811 20.0533 91.5478 20.16C91.5211 20.1867 91.4945 20.24 91.4678 20.32C91.4678 20.4 91.4545 20.4667 91.4278 20.52C91.4011 20.6 91.3478 20.6667 91.2678 20.72C91.2145 20.7467 91.1878 20.7733 91.1878 20.8C91.1611 20.9067 91.1078 20.9733 91.0278 21C90.9745 21 90.9211 21.0267 90.8678 21.08C90.8411 21.1067 90.8411 21.1467 90.8678 21.2C90.8945 21.2533 90.8811 21.3067 90.8278 21.36C90.8011 21.44 90.7745 21.48 90.7478 21.48C90.7211 21.4533 90.6811 21.4667 90.6278 21.52C90.5211 21.6267 90.4411 21.68 90.3878 21.68C90.2278 21.7333 90.1611 21.7733 90.1878 21.8C90.2411 21.8267 90.2811 21.8533 90.3078 21.88C90.3611 21.88 90.3211 21.92 90.1878 22C90.1345 22.0267 90.0811 22.1067 90.0278 22.24C89.9745 22.3467 89.9211 22.4267 89.8678 22.48C89.7878 22.5333 89.7078 22.5733 89.6278 22.6C89.5745 22.6267 89.5078 22.68 89.4278 22.76C89.1878 23 88.9878 23.12 88.8278 23.12ZM102.822 23.12C102.662 23.12 102.582 23.0267 102.582 22.84C102.582 22.7067 102.622 22.5467 102.702 22.36C102.915 21.9067 103.155 21.2667 103.422 20.44C103.715 19.6133 104.075 18.9067 104.502 18.32C104.795 17.7333 105.062 17.16 105.302 16.6C105.569 16.0133 105.822 15.4267 106.062 14.84C106.062 14.84 106.035 14.8267 105.982 14.8C105.929 14.7467 105.902 14.6933 105.902 14.64C105.769 14.5333 105.609 14.3867 105.422 14.2C105.235 13.9867 105.222 13.7733 105.382 13.56C105.435 13.5067 105.462 13.48 105.462 13.48C105.489 13.48 105.502 13.48 105.502 13.48C105.502 13.4533 105.489 13.44 105.462 13.44C105.462 13.44 105.462 13.4267 105.462 13.4L105.422 13.36C105.395 13.36 105.369 13.36 105.342 13.36C105.342 13.3333 105.329 13.32 105.302 13.32C105.195 13.32 105.075 13.3467 104.942 13.4C104.809 13.4267 104.675 13.44 104.542 13.44C104.382 13.44 104.169 13.5067 103.902 13.64C103.635 13.7467 103.395 13.84 103.182 13.92C103.075 13.9467 103.009 13.96 102.982 13.96C102.982 13.9333 102.929 13.9467 102.822 14C102.795 14.0267 102.795 13.9867 102.822 13.88C102.875 13.7467 102.902 13.6533 102.902 13.6C102.902 13.5733 102.889 13.56 102.862 13.56C102.809 13.56 102.702 13.64 102.542 13.8C102.382 13.9333 102.275 14.0133 102.222 14.04C102.195 14.0667 102.182 14.1067 102.182 14.16C102.209 14.2133 102.222 14.2667 102.222 14.32C102.222 14.4 102.155 14.4933 102.022 14.6C101.889 14.68 101.795 14.7467 101.742 14.8C101.635 14.88 101.502 14.9333 101.342 14.96C101.209 14.96 101.075 15.0133 100.942 15.12C100.782 15.2267 100.702 15.3067 100.702 15.36C100.729 15.4133 100.649 15.5067 100.462 15.64C100.222 15.8267 99.8885 16.1067 99.4619 16.48C99.0619 16.8533 98.7552 17.1867 98.5419 17.48C98.0352 18.0933 97.5685 18.8 97.1419 19.6C96.7419 20.4 96.5419 21.0267 96.5419 21.48C96.5419 21.8267 96.6885 22 96.9819 22C97.0352 22 97.0885 22 97.1419 22C97.1952 21.9733 97.2619 21.9467 97.3419 21.92L98.3819 21.32L98.6219 21.28V21.24L98.7819 21.36C98.8085 21.3333 98.7952 21.2933 98.7419 21.24C98.7152 21.16 98.7152 21.12 98.7419 21.12C98.7685 21.12 98.7819 21.1333 98.7819 21.16C98.8085 21.16 98.8352 21.16 98.8619 21.16L98.9419 21.04C98.9419 21.04 98.9819 21.0533 99.0619 21.08C99.1685 21.08 99.2485 21.0533 99.3019 21C99.3819 20.9733 99.3952 20.9333 99.3419 20.88C99.3152 20.8267 99.2752 20.7867 99.2219 20.76L99.5019 20.52C99.5285 20.4667 99.6352 20.4133 99.8219 20.36C100.275 20.0667 100.649 19.72 100.942 19.32C101.262 18.8933 101.622 18.5067 102.022 18.16H102.062L102.542 17.68L102.502 17.56L103.022 16.96H103.102C103.129 16.9067 103.182 16.84 103.262 16.76C103.369 16.68 103.435 16.6133 103.462 16.56C103.515 16.5333 103.635 16.4 103.822 16.16C104.035 15.8933 104.235 15.68 104.422 15.52C104.635 15.36 104.755 15.28 104.782 15.28C104.809 15.28 104.822 15.2933 104.822 15.32C104.822 15.4 104.782 15.52 104.702 15.68C104.649 15.84 104.595 15.9467 104.542 16C104.355 16.2933 104.115 16.6267 103.822 17C103.529 17.3467 103.355 17.56 103.302 17.64C102.982 17.9867 102.595 18.4533 102.142 19.04C101.689 19.6 101.195 20.16 100.662 20.72C100.129 21.28 99.5952 21.76 99.0619 22.16C98.5552 22.5333 98.0752 22.72 97.6219 22.72C97.1952 22.72 96.7419 22.5867 96.2619 22.32C95.7819 22.0533 95.5419 21.5467 95.5419 20.8C95.5419 20.56 95.5685 20.2933 95.6219 20C95.7019 19.68 95.8219 19.3467 95.9819 19C95.9819 19 96.0085 18.9733 96.0619 18.92C96.1152 18.84 96.1552 18.8133 96.1819 18.84C96.2352 18.76 96.2485 18.68 96.2219 18.6C96.2219 18.4933 96.2219 18.4267 96.2219 18.4L96.3019 18.32C96.3552 18.0267 96.5552 17.76 96.9019 17.52C97.2485 17.28 97.4352 17.0933 97.4619 16.96C97.4885 16.9333 97.5019 16.8933 97.5019 16.84L97.6619 16.32V16.16H97.8219L97.9419 16L97.9819 15.92C97.9285 15.8933 97.9419 15.8533 98.0219 15.8C98.1285 15.72 98.1819 15.68 98.1819 15.68C98.2085 15.6267 98.2352 15.5867 98.2619 15.56C98.3152 15.5333 98.3552 15.5067 98.3819 15.48H98.6619C98.7152 15.4 98.6885 15.36 98.5819 15.36C98.4752 15.36 98.4219 15.36 98.4219 15.36C98.4219 15.3333 98.4219 15.32 98.4219 15.32C98.4485 15.2933 98.4619 15.2667 98.4619 15.24L98.9019 14.88C99.0352 14.7733 99.1685 14.68 99.3019 14.6C99.4352 14.52 99.5552 14.4267 99.6619 14.32C99.7419 14.32 99.7552 14.36 99.7019 14.44C99.7285 14.4933 99.7552 14.4933 99.7819 14.44C99.8352 14.3867 99.8619 14.36 99.8619 14.36L100.062 14.32V14.28C100.062 14.2267 100.075 14.1467 100.102 14.04C100.129 13.9333 100.142 13.8667 100.142 13.84C100.702 13.4133 101.289 13.04 101.902 12.72C102.515 12.3733 103.115 12.2 103.702 12.2C104.395 12.2 105.022 12.4667 105.582 13L105.782 13.12C105.809 13.12 105.822 13.1067 105.822 13.08C105.875 12.7067 106.182 12.4267 106.742 12.24C107.329 12.0533 107.849 11.96 108.302 11.96C108.782 11.96 109.022 12.0267 109.022 12.16C109.022 12.2133 108.942 12.3067 108.782 12.44C108.702 12.4933 108.569 12.6133 108.382 12.8C108.195 12.9867 108.009 13.2133 107.822 13.48C107.795 13.56 107.755 13.64 107.702 13.72C107.649 13.8 107.595 13.88 107.542 13.96C107.515 14.0133 107.475 14.08 107.422 14.16C107.395 14.2133 107.355 14.2667 107.302 14.32C106.849 15.0933 106.489 15.7467 106.222 16.28C105.955 16.8133 105.635 17.4933 105.262 18.32C105.209 18.48 105.182 18.5733 105.182 18.6C105.182 18.8133 105.302 18.92 105.542 18.92C105.702 18.92 105.862 18.88 106.022 18.8L106.422 18.64C107.062 18.0533 107.729 17.56 108.422 17.16C108.449 17.16 108.462 17.16 108.462 17.16C108.489 17.1333 108.515 17.12 108.542 17.12C108.622 17.12 108.675 17.1733 108.702 17.28C108.729 17.36 108.702 17.4267 108.622 17.48C107.849 17.9067 107.129 18.4533 106.462 19.12C106.435 19.1733 106.409 19.2267 106.382 19.28C106.355 19.3333 106.315 19.3867 106.262 19.44C106.182 19.4933 106.102 19.5867 106.022 19.72C105.942 19.8533 105.902 19.9333 105.902 19.96C105.875 20.04 105.835 20.0667 105.782 20.04C105.755 20.0133 105.675 20.0533 105.542 20.16C105.515 20.1867 105.489 20.24 105.462 20.32C105.462 20.4 105.449 20.4667 105.422 20.52C105.369 20.6 105.315 20.6667 105.262 20.72C105.209 20.7467 105.182 20.7733 105.182 20.8C105.155 20.9067 105.102 20.9733 105.022 21C104.969 21 104.915 21.0267 104.862 21.08C104.835 21.08 104.822 21.0933 104.822 21.12C104.822 21.36 104.795 21.4667 104.742 21.44C104.689 21.4133 104.635 21.44 104.582 21.52C104.529 21.6267 104.462 21.68 104.382 21.68C104.222 21.7333 104.155 21.7733 104.182 21.8C104.235 21.8267 104.275 21.8533 104.302 21.88C104.355 21.88 104.315 21.92 104.182 22C104.129 22.0267 104.075 22.1067 104.022 22.24C103.969 22.3467 103.915 22.4267 103.862 22.48C103.782 22.5333 103.702 22.5733 103.622 22.6C103.542 22.6267 103.475 22.68 103.422 22.76C103.182 23 102.982 23.12 102.822 23.12Z" fill="url(#paint0_linear_7_11)"/>
<defs>
<linearGradient id="paint0_linear_7_11" x1="-2" y1="-7" x2="108" y2="39" gradientUnits="userSpaceOnUse">
<stop stop-color="#E82519"/>
<stop offset="1" stop-color="#FF4B40"/>
</linearGradient>
</defs>
</svg>
