<svg width="22" height="20" viewBox="0 0 22 20" fill="none" xmlns="http://www.w3.org/2000/svg">
<path d="M0.800784 0.75008L0.800785 0.750005C0.79415 0.749911 0.787563 0.751137 0.781405 0.753611C0.775247 0.756086 0.769643 0.759759 0.764918 0.764418C0.760193 0.769076 0.756441 0.774628 0.75388 0.78075C0.751319 0.786871 0.75 0.793441 0.75 0.800077C0.75 0.806713 0.751319 0.813282 0.75388 0.819404C0.756441 0.825526 0.760193 0.831077 0.764918 0.835736L0.800784 0.75008ZM0.800784 0.75008H0.811391M0.800784 0.75008H0.811391M0.811391 0.75008H2.31451C2.86434 0.75008 3.35636 1.11806 3.51218 1.6477L3.67056 2.18601H3.67202L4.50277 5.01161L4.66107 5.55006H5.22231H20.8113H20.8114C20.8191 5.55006 20.8267 5.55184 20.8336 5.55525C20.8405 5.55866 20.8465 5.56362 20.8512 5.56974C20.8559 5.57587 20.8591 5.58299 20.8605 5.59055C20.862 5.5981 20.8617 5.6059 20.8597 5.61333L20.8596 5.61367L18.7816 13.2334C18.5862 13.9479 17.9293 14.45 17.1895 14.45H8.40824C7.67964 14.45 7.03157 13.9647 6.82621 13.2665L6.8262 13.2665L3.41684 1.67593L3.41683 1.67589C3.27225 1.18447 2.83006 0.850074 2.31451 0.850074H0.811391V0.849999M0.811391 0.75008V0.849999M0.811391 0.849999L0.800785 0.850149M0.811391 0.849999L0.800785 0.850149M0.800785 0.850149C0.79415 0.850242 0.787562 0.849017 0.781405 0.846542C0.775247 0.844068 0.769643 0.840394 0.764919 0.835736L0.800785 0.850149ZM8.21032 17.799C8.36973 17.6396 8.58593 17.55 8.81136 17.55C9.03679 17.55 9.25299 17.6396 9.4124 17.799C9.5718 17.9584 9.66135 18.1746 9.66135 18.4C9.66135 18.6254 9.5718 18.8416 9.4124 19.001C9.25299 19.1604 9.03679 19.25 8.81136 19.25C8.58593 19.25 8.36973 19.1604 8.21032 19.001C8.05092 18.8416 7.96137 18.6254 7.96137 18.4C7.96137 18.1746 8.05092 17.9584 8.21032 17.799ZM16.2103 17.799C16.3697 17.6396 16.5859 17.55 16.8113 17.55C17.0368 17.55 17.253 17.6396 17.4124 17.799C17.5718 17.9584 17.6613 18.1746 17.6613 18.4C17.6613 18.6254 17.5718 18.8416 17.4124 19.001C17.253 19.1604 17.0368 19.25 16.8113 19.25C16.5859 19.25 16.3697 19.1604 16.2103 19.001C16.0509 18.8416 15.9613 18.6254 15.9613 18.4C15.9613 18.1746 16.0509 17.9584 16.2103 17.799Z" stroke="#444444" stroke-width="1.5"/>
</svg>
